<?xml version="1.0" encoding="UTF-8"?><svg id="uuid-ed90400f-1dd7-4ece-aa87-c4db98b84f74" xmlns="http://www.w3.org/2000/svg" xmlns:xlink="http://www.w3.org/1999/xlink" viewBox="0 0 193.67 193.67"><defs><style>.uuid-88aa0a6f-c81d-45b7-b865-e26ec6beefdf{fill:#fff;}.uuid-25b214fd-6bae-4f2f-93f4-992dfa964788{fill:url(#uuid-0fe17c60-3252-46f0-ae78-b59f85997b57);}</style><linearGradient id="uuid-0fe17c60-3252-46f0-ae78-b59f85997b57" x1="31.27" y1="92.8" x2="170.58" y2="92.8" gradientTransform="translate(69.41 -40.71) rotate(34.16)" gradientUnits="userSpaceOnUse"><stop offset="0" stop-color="#d9005d"/><stop offset="1" stop-color="#1e00d4"/></linearGradient></defs><rect class="uuid-88aa0a6f-c81d-45b7-b865-e26ec6beefdf" width="193.67" height="193.67" rx="29.09" ry="29.09"/><path class="uuid-25b214fd-6bae-4f2f-93f4-992dfa964788" d="M141.26,156.08c-1.67,6.19-8.05,9.87-14.24,8.2-6.19-1.67-9.86-8.04-8.2-14.24,.56-2.07,1.65-3.86,3.09-5.26l-5.36-11.1-37.18-2.7-6.93,10.21c.89,1.17,1.58,2.53,1.98,4.03,1.65,6.19-2.03,12.56-8.23,14.21-6.21,1.65-12.57-2.04-14.21-8.23-1.66-6.2,2.03-12.57,8.23-14.21,2.08-.55,4.18-.5,6.11,.03l6.92-10.2-16.26-33.54-12.28-.9c-.58,1.35-1.41,2.62-2.52,3.73-4.53,4.53-11.89,4.52-16.41-.02-4.54-4.54-4.53-11.9,.01-16.42,4.54-4.53,11.9-4.53,16.43,.02,1.52,1.53,2.53,3.37,3.03,5.31l12.28,.9,20.94-30.86-5.37-11.08c-1.46,.19-2.99,.1-4.5-.31-6.19-1.67-9.86-8.04-8.19-14.22,1.66-6.2,8.04-9.87,14.23-8.2,6.2,1.66,9.87,8.05,8.2,14.23-.56,2.08-1.66,3.87-3.09,5.27l5.37,11.09,37.18,2.71,6.93-10.21c-.9-1.17-1.58-2.53-1.98-4.03-1.66-6.2,2.02-12.56,8.23-14.21,6.2-1.66,12.56,2.03,14.21,8.23,1.65,6.19-2.03,12.56-8.23,14.21-2.08,.55-4.17,.51-6.11-.04l-6.93,10.21,16.26,33.54,12.27,.89c.58-1.35,1.41-2.62,2.52-3.73,4.54-4.53,11.9-4.53,16.43,.02,4.52,4.54,4.51,11.9-.03,16.42-4.54,4.53-11.9,4.53-16.43-.02-1.52-1.53-2.53-3.37-3.03-5.32l-12.28-.89-20.92,30.84,5.37,11.09c1.46-.19,2.97-.09,4.48,.31,6.2,1.66,9.86,8.03,8.2,14.23Z"/><path class="uuid-88aa0a6f-c81d-45b7-b865-e26ec6beefdf" d="M100.82,80.45c6.78,0,12.3,5.52,12.3,12.3s-5.52,12.3-12.3,12.3-12.3-5.52-12.3-12.3,5.52-12.3,12.3-12.3m0-11c-12.87,0-23.3,10.43-23.3,23.3s10.43,23.3,23.3,23.3,23.3-10.43,23.3-23.3-10.43-23.3-23.3-23.3h0Z"/></svg>